<?xml version="1.0" encoding="UTF-8"?>
<svg id="Layer_1" data-name="Layer 1" xmlns="http://www.w3.org/2000/svg" viewBox="0 0 1920 1080">
  <defs>
    <style>
      .cls-1 {
        letter-spacing: .02em;
      }

      .cls-2 {
        letter-spacing: -.07em;
      }

      .cls-3 {
        fill: #b4dc14;
      }

      .cls-4, .cls-5 {
        fill: #090a77;
      }

      .cls-5 {
        font-family: AzonixRegular, Azonix;
        font-size: 53.52px;
      }

      .cls-6 {
        fill: #01b4ff;
      }

      .cls-7 {
        fill: #1bbcee;
      }
    </style>
  </defs>
  <g>
    <text class="cls-5" transform="translate(690.04 493.87)"><tspan class="cls-2" x="0" y="0">A</tspan><tspan class="cls-1" x="35.69" y="0">cademia</tspan></text>
    <g>
      <path class="cls-4" d="M736.14,555.48l35.36,48.9h-17.97l-28.24-38.98-20.66,18.79v20.19h-14.59v-81.69h14.59v41.78l12.02-10.97,10.85-9.92,22.76-20.89h21.59l-35.71,32.79Z"/>
      <path class="cls-4" d="M862.06,604.38h-16.34l-7.47-14.59-17.85-35.01-17.85,35.01-7.47,14.59h-16.34l7.47-14.59,34.19-67.1,34.19,67.1,7.47,14.59Z"/>
      <path class="cls-4" d="M953.09,522.69v81.69h-14.59v-52.05l-14.35,10.97-11.9,9.22-11.9-9.22-14.35-10.97v52.05h-14.59v-81.69l14.59,11.2,26.26,20.19,26.26-20.19,14.59-11.2Z"/>
      <path class="cls-4" d="M1045.86,604.38h-16.34l-7.47-14.59-17.85-35.01-17.85,35.01-7.47,14.59h-16.34l7.47-14.59,34.19-67.1,34.19,67.1,7.47,14.59Z"/>
      <path class="cls-4" d="M1113.67,522.81v14.59h-33.49v67.1h-14.59v-67.1h-33.49v-14.59h81.57Z"/>
      <path class="cls-4" d="M1183.45,604.38h-16.34l-7.47-14.59-17.85-35.01-17.85,35.01-7.47,14.59h-16.34l7.47-14.59,34.19-67.1,34.19,67.1,7.47,14.59Z"/>
      <path class="cls-4" d="M1274.48,522.69v81.69h-14.59v-52.05l-14.35,10.97-11.9,9.22-11.9-9.22-14.35-10.97v52.05h-14.59v-81.69l14.59,11.2,26.26,20.19,26.26-20.19,14.59-11.2Z"/>
      <path class="cls-4" d="M1370.18,578.36c0,14.35-11.67,26.02-26.02,26.02h-55.67v-81.69h51.46c12.14,0,22.06,9.92,22.06,22.06,0,4.43-1.28,8.52-3.5,11.9,7,4.67,11.67,12.6,11.67,21.71ZM1303.07,552.22h36.99c4.08,0,7.47-3.38,7.47-7.47s-3.38-7.47-7.47-7.47h-36.99v14.94ZM1344.15,589.68c6.3,0,11.44-5.13,11.44-11.44s-5.13-11.44-11.44-11.44h-41.08v22.99h41.08v-.12Z"/>
      <path class="cls-4" d="M1462.95,522.69v40.84c0,22.52-18.32,40.84-40.84,40.84s-40.84-18.32-40.84-40.84v-40.84h14.59v40.84c0,14.47,11.79,26.26,26.26,26.26s26.26-11.79,26.26-26.26v-40.84h14.59Z"/>
    </g>
    <g>
      <path class="cls-6" d="M554.79,430.92h14.95l-.02,46.76c.83,12.93,7.36,24.38,19.37,32.28l-.2.57c-10.16,6.6-16.51,16.2-18.58,26.94-1.22,17.24-.25,34.61-.56,51.9h-14.95v-53.88c1.2-9.15,5.15-18.01,11.84-25.22-6.43-7.48-10.69-16.18-11.83-25.48v-53.88Z"/>
      <path class="cls-6" d="M592.06,431.21h15.39l-.02,47.14,2.22,11.44h-16.27c-.63-3.23-1.16-6.65-1.34-9.93-.85-16.01.67-32.58.02-48.64Z"/>
      <path class="cls-6" d="M593.38,531.08h16.27l-2.22,11.06.02,47.51h-15.39c.63-16.07-.84-32.62-.02-48.64.09-1.67.27-3.96.46-5.61.16-1.41.57-2.93.87-4.32Z"/>
      <polygon class="cls-6" points="519.47 431.21 534.86 431.21 534.86 477.01 533.54 476.45 519.47 465.94 519.47 431.21"/>
      <polygon class="cls-6" points="519.44 554.93 534.82 543.85 534.83 589.66 519.44 589.66 519.44 554.93"/>
      <path class="cls-3" d="M655.46,546.58c-2.77,48.11-40.42,86.08-84.52,100.76-10.74,3.58-14.24,1.18-24.14-2.91-41.56-17.12-74.75-51.76-77.28-98.45-1.31-24.29.49-49.88.41-74.48h.05v-13.72h33.94v13.72h-20.4l.04,77.63c3.28,39.6,33.25,68.91,68.76,82.46,3.21,1.22,7.97,4.21,11.61,3.7,3.43-.49,13.64-5.24,17.27-6.98,32.04-15.34,57.38-43.1,60.25-79.82l-.05-76.99h-20.25v-13.72h33.94v13.72h-.01c-.1,24.79,1.79,50.63.38,75.08Z"/>
    </g>
  </g>
  <g>
    <circle class="cls-7" cx="1015.55" cy="477.01" r="6.06"/>
    <circle class="cls-7" cx="1036.2" cy="477.01" r="6.06"/>
    <circle class="cls-7" cx="1057.11" cy="477.01" r="6.06"/>
  </g>
</svg>